/* XPM */
static char * qico_xpm[] = {
"48 48 68 1",
" 	c None",
".	c #000000",
"+	c #666666",
"@	c #2F4719",
"#	c #3B5722",
"$	c #476729",
"%	c #293B15",
"&	c #AFAFAF",
"*	c #4F762E",
"=	c #6E6A4A",
"-	c #6F7558",
";	c #8A9375",
">	c #C4CFBA",
",	c #7C8569",
"'	c #95AD74",
")	c #6DA344",
"!	c #48482A",
"~	c #B8C1AE",
"{	c #ADB290",
"]	c #665B37",
"^	c #78B470",
"/	c #B1BCA9",
"(	c #96A280",
"_	c #5D823B",
":	c #CAA759",
"<	c #A4874D",
"[	c #8D7640",
"}	c #BBA35E",
"|	c #BE5A64",
"1	c #D8DDB8",
"2	c #AC9452",
"3	c #D1B460",
"4	c #66923B",
"5	c #ECCF75",
"6	c #918347",
"7	c #342D19",
"8	c #E0C069",
"9	c #222B15",
"0	c #856C40",
"a	c #F3E579",
"b	c #D2CA78",
"c	c #A2A677",
"d	c #CDBD63",
"e	c #5E4F2B",
"f	c #4A3B1C",
"g	c #100E04",
"h	c #181D11",
"i	c #331F0E",
"j	c #DAE474",
"k	c #AECE64",
"l	c #68391E",
"m	c #A14926",
"n	c #4F2B14",
"o	c #BE3320",
"p	c #6D2B16",
"q	c #BC271B",
"r	c #A12218",
"s	c #862115",
"t	c #6B1F12",
"u	c #8A4C28",
"v	c #70BE2C",
"w	c #4F190E",
"x	c #BF4624",
"y	c #68130C",
"z	c #30110B",
"A	c #833118",
"B	c #A52D1B",
"C	c #DE3824",
"...............................................+",
".@@@@@@@@@@@@@@@@@@###$###@@###@@@@@@@@@@%%%%%%&",
".#@@@@@@@@@@@@@##@####*#########@@@@@@@@@%%@@@@&",
".@#%=-;>,>>>>;==@%##$$*#########@@@');%@@@@@@@@&",
".@!;~>{!]==#%-~~,##$$$*$$##$$###@#~^=^~@@@@@@@@&",
".%/>>(!->,(==-];>/##$$_$$$$$$$##$:<<){//#@@@@@@&",
".@,=]-;>=>=,//[}<-%@*$_$$$$*$$##>~|{////>=@@@@@&",
".@;,%%1~->=,;}2[23=%_*4,;,;,,-;>{{{/////{>,@@@@&",
".@,-#,>~,>-,2567[832__4>~~~~{>>/~/////~~//~(@@@&",
".@99!~>{#>903a8:b}=:2_>{((((>/~~/~~~~~~~///c=@@&",
".##@=>>~,>,22:5:dde7<c1{{({>~~~~~~~~{~~~~/(=$@@&",
".##@]>>{@>[2e0[7f22ge853('1>~~~~~~>c;{~//ce=@@@&",
".##@->>>;1(82=7hh<b9h3225>{~>>>~~>c({;~{,]c-@@@&",
".###-----,285=hh72}2h8=9<5}{>>>~~;>~;>~-=((-@@@&",
".##$=#%@@@][20ihe3f3]86h9[a3/>>>c~c~>{-,{;(]=@@&",
".###,{,,,;,-2<7h]29!ddehh9[5b>>>>{/~(=;c;,,];-#&",
".##@,~,;;;;({de!::!9-07hhhh651>>>>>(](;c(;;;,!,&",
".###$-#$$$-}d8:3832!9hhhhhh965{>>>;-}2:;(,,==!,&",
".****@###$,30]35-e}079hhhhhhh63,;-![5]23;,,-=!,&",
".$$**_4)))(<hh<<7!:e79hhhhhh9752(>>{3}h}:,,-]@-&",
".###$$*_4)c67,jc9e8!9hhhhhhhhh<};;;,,b=f2},==@-&",
".@@###$$*_2]9}a}7!:]79hhhhhhhh72}-=$$=:]e26]#@;&",
".###$$$**4{=9]}=9!2]=2]9999999908{''(;(}0e<',,@&",
".#$$**__4)k6h]}]9f<005099999999%:}444_*=:702@#@&",
".###$$$*_4k<h6a!g9[]!5=9977799hhe:(____#3ee<###&",
".##$$*____;d[:5filmif5]77779999hh23$$$##;[]66##&",
".$$$$$$$*_46<c67nooi]a0779999999h!26*$$#$60[6@@&",
".####$*_***#$)4%pqri<j8=976[99hhhh=3,$$#$00==#@&",
".##$$$@@@##$_)4elsred)5d666!hhhhhg72[##@@0=!=]@&",
".##@99hhhhh9##@f7tru'vj;]ehggggghhgi7h99hlf76!@&",
".@%hggwsstnnnf9insox)v_@9nwyywzggggztpttpAzf2%@&",
".@hgzsrrptsBAlnpAoCx)4$9noqyysyzgggsqBBBosyn6#@&",
".@hzBBAf@isol]!fpoCB4#%nBCmwyrryzzyqsy7pwysAf#@&",
".%htBl!$%htol]8e7BCp*%ipoBefzyywzwrCAn!igwoBw@@&",
".%hrBf##@9wBp[37iBqncfiBxm<}eggggwoCu<:<77Bqt@@&",
".%hrA%@#@hwoA0[hiBBfjfzrBu<6f7!f7poof-_-7htqn%%&",
".%hrs7@$@htoA]2e7som5fzrrl]]]<}0ftqBn@##hgsqt%%&",
".@hrs7%#@hwrs!-7isos-7irBAn][,$#hwrsi9@%hgrqt@@&",
".%htrthhhgtrs%@9isqt@9isqswi9hhhhwrrwh9hgzqri@@&",
".%hwrrtiiwsqsf9hwrqtw77wsBstwwtppwtqswzgzrqp9@@&",
".%hwrrqqssrqslnsrBBts7%itsBBrBBn77wrrrqqssps%@@&",
".@@nlllliwsrt777f79iAf*f77nnsf7@@#!tttsti79%@@@&",
".@@@@##@9gsqt%###@@@##*###@@@#@#####@%%9@@%%%%%&",
".@@@@@@9hgtrw9@#@@@@@#$#####@@@@####@@@@@@%%%%%&",
".@@@@@%hggtrti%#@@@@@#$@@##@@@@@@@@@@@%%@%%%%%%&",
".@@@@%%htrqqqsi@%%@@@##@@##@@@@@@@@@@@%%%%%%%%9&",
".@@@%%%%%%%@@@@@%%%%@@#@@@@@@@@@@@@@@@@%%%%%%%9&",
"+&&&&&&&&&&&&&&&&&&&&&&&&&&&&&&&&&&&&&&&&&&&&&&&"};
